<svg width="343" height="178" viewBox="0 0 343 178" fill="none" xmlns="http://www.w3.org/2000/svg">
<path d="M47.32 177.48L52.12 139.08L10.84 142.2L0.28 120.6C5.56 104.76 10.6 89.64 15.4 75.24C17.48 69.16 19.56 62.92 21.64 56.52C23.72 49.96 25.72 43.64 27.64 37.56C29.72 31.48 31.64 25.72 33.4 20.28C35.16 14.84 36.76 10.12 38.2 6.12C44.92 6.12 51.24 5.95999 57.16 5.63999C63.24 5.16 69.72 4.43999 76.6 3.47999C70.68 18.36 65.16 33.32 60.04 48.36C55.08 63.4 50.2 78.68 45.4 94.2C45.24 95.32 45.08 96.28 44.92 97.08C44.76 97.88 44.52 98.84 44.2 99.96H61.24C61.4 98.84 61.72 97.08 62.2 94.68C62.68 92.12 63.24 89.16 63.88 85.8C64.52 82.44 65.16 78.76 65.8 74.76C66.6 70.76 67.4 66.68 68.2 62.52C69.8 53.24 71.72 43.08 73.96 32.04C79.08 31.24 84.28 30.52 89.56 29.88C93.88 29.24 98.36 28.68 103 28.2C107.64 27.72 111.64 27.32 115 27C114.84 28.6 114.36 31.32 113.56 35.16C112.92 39 112.12 43.32 111.16 48.12C110.36 52.92 109.48 58.04 108.52 63.48C107.72 68.92 106.84 74.04 105.88 78.84C104.92 83.64 104.12 87.96 103.48 91.8C102.84 95.64 102.36 98.36 102.04 99.96H115.72L105.88 138.36H93.64L91.48 169.8L47.32 177.48ZM233.969 58.92C233.969 67.56 233.249 76.44 231.809 85.56C230.369 94.68 228.129 103.64 225.089 112.44C222.209 121.08 218.609 129.32 214.289 137.16C210.129 145 205.249 151.88 199.649 157.8C194.049 163.56 187.809 168.2 180.929 171.72C174.209 175.08 166.849 176.76 158.849 176.76C151.489 176.76 145.169 175.4 139.889 172.68C134.769 169.96 130.529 166.28 127.169 161.64C123.969 156.84 121.569 151.32 119.969 145.08C118.369 138.68 117.569 131.8 117.569 124.44C117.569 115.96 118.529 106.92 120.449 97.32C122.369 87.72 125.089 78.36 128.609 69.24C132.289 60.12 136.689 51.4 141.809 43.08C146.929 34.76 152.449 27.48 158.369 21.24C164.449 15 170.929 10.04 177.809 6.35999C184.689 2.52 191.809 0.599997 199.169 0.599997C205.089 0.599997 210.209 2.12 214.529 5.16C219.009 8.19999 222.689 12.36 225.569 17.64C228.449 22.92 230.529 29.16 231.809 36.36C233.249 43.4 233.969 50.92 233.969 58.92ZM153.569 116.52C153.569 122.44 154.529 127.24 156.449 130.92C158.369 134.6 161.569 136.44 166.049 136.44C171.969 136.44 177.409 134.44 182.369 130.44C187.329 126.44 191.569 121.48 195.089 115.56C198.609 109.48 201.329 102.92 203.249 95.88C205.169 88.68 206.129 81.88 206.129 75.48C206.129 68.6 204.769 62.76 202.049 57.96C199.489 53.16 195.329 50.76 189.569 50.76C184.929 50.76 180.449 53 176.129 57.48C171.809 61.8 167.969 67.32 164.609 74.04C161.409 80.6 158.769 87.72 156.689 95.4C154.609 103.08 153.569 110.12 153.569 116.52ZM273.961 177.48L278.761 139.08L237.481 142.2L226.921 120.6C232.201 104.76 237.241 89.64 242.041 75.24C244.121 69.16 246.201 62.92 248.281 56.52C250.361 49.96 252.361 43.64 254.281 37.56C256.361 31.48 258.281 25.72 260.041 20.28C261.801 14.84 263.401 10.12 264.841 6.12C271.561 6.12 277.881 5.95999 283.801 5.63999C289.881 5.16 296.361 4.43999 303.241 3.47999C297.321 18.36 291.801 33.32 286.681 48.36C281.721 63.4 276.841 78.68 272.041 94.2C271.881 95.32 271.721 96.28 271.561 97.08C271.401 97.88 271.161 98.84 270.841 99.96H287.881C288.041 98.84 288.361 97.08 288.841 94.68C289.321 92.12 289.881 89.16 290.521 85.8C291.161 82.44 291.801 78.76 292.441 74.76C293.241 70.76 294.041 66.68 294.841 62.52C296.441 53.24 298.361 43.08 300.601 32.04C305.721 31.24 310.921 30.52 316.201 29.88C320.521 29.24 325.001 28.68 329.641 28.2C334.281 27.72 338.281 27.32 341.641 27C341.481 28.6 341.001 31.32 340.201 35.16C339.561 39 338.761 43.32 337.801 48.12C337.001 52.92 336.121 58.04 335.161 63.48C334.361 68.92 333.481 74.04 332.521 78.84C331.561 83.64 330.761 87.96 330.121 91.8C329.481 95.64 329.001 98.36 328.681 99.96H342.361L332.521 138.36H320.281L318.121 169.8L273.961 177.48Z" fill="white" fill-opacity="0.5"/>
</svg>
