<svg width="65" height="22" viewBox="0 0 65 22" fill="none" xmlns="http://www.w3.org/2000/svg">
<path d="M7.29772 19.7388C6.75128 19.7388 6.16959 19.7564 5.55264 19.7917C4.95331 19.827 4.34518 19.88 3.72823 19.9506C3.11128 20.0212 2.50315 20.1183 1.90382 20.2419C1.32213 20.3479 0.793315 20.4803 0.317383 20.6392C0.423146 19.8447 0.546535 18.9619 0.687552 17.9909C0.828569 17.0199 0.987213 16.0135 1.16348 14.9719C1.35738 13.9302 1.54247 12.8797 1.71874 11.8204C1.91264 10.7611 2.10654 9.74593 2.30043 8.77489C2.74111 6.46207 3.20823 4.1051 3.70179 1.704L8.32891 1.09489C7.85298 3.14289 7.39467 5.13793 6.95399 7.07999C6.76009 7.90979 6.5662 8.77489 6.3723 9.67531C6.1784 10.5581 5.99331 11.4232 5.81704 12.2706C5.64077 13.1181 5.48213 13.939 5.34111 14.7335C5.20009 15.528 5.08552 16.2342 4.99738 16.8521C5.43806 16.8168 5.90518 16.7992 6.39874 16.7992C6.90992 16.7815 7.35942 16.7727 7.74721 16.7727C7.76484 17.1081 7.79128 17.4436 7.82653 17.779C7.86179 18.0968 7.89704 18.3881 7.9323 18.653C7.98518 18.9178 8.02043 19.1561 8.03806 19.368C8.07331 19.5622 8.09975 19.6946 8.11738 19.7652C7.97637 19.7652 7.83535 19.7652 7.69433 19.7652C7.57094 19.7476 7.43874 19.7388 7.29772 19.7388ZM8.1903 20.6127L11.654 1.78344L20.0093 1.06841C19.8859 1.45682 19.7801 1.85406 19.692 2.26013C19.6039 2.59558 19.5157 2.94869 19.4276 3.31945C19.3571 3.67255 19.2954 3.99034 19.2425 4.27282C19.0662 4.29048 18.8107 4.30813 18.4757 4.32579C18.1584 4.32579 17.8147 4.33461 17.4446 4.35227C17.0744 4.35227 16.6954 4.35227 16.3076 4.35227C15.9374 4.35227 15.6113 4.35227 15.3293 4.35227L14.4039 9.09269C14.9503 9.05738 15.4615 9.03089 15.9374 9.01324C16.3252 8.99558 16.7218 8.98675 17.1273 8.98675C17.5327 8.98675 17.8323 8.97793 18.0262 8.96027C17.9557 9.45462 17.8852 9.94014 17.8147 10.4168C17.7618 10.8935 17.6913 11.379 17.6032 11.8734C17.4269 11.891 17.1361 11.9087 16.7307 11.9263C16.3429 11.9263 15.9462 11.9352 15.5408 11.9528C15.0825 11.9705 14.5801 11.9881 14.0337 12.0058L13.1347 16.8786L16.9951 16.2695L16.7307 19.2886L8.1903 20.6127ZM26.7205 20.0566C26.2798 20.1272 25.7951 20.2066 25.2663 20.2949C24.7374 20.3832 24.2615 20.4626 23.8385 20.5332C23.909 19.9506 23.9795 19.3768 24.05 18.8119C24.1029 18.3175 24.1469 17.8232 24.1822 17.3288C24.2351 16.8345 24.2791 16.4108 24.3144 16.0577H22.014L20.9564 19.8712C20.5686 19.9241 20.1103 19.9859 19.5815 20.0566C19.0527 20.1095 18.5591 20.1625 18.1008 20.2154C17.5368 20.2861 16.9815 20.3567 16.4351 20.4273C17.1402 18.0792 17.8364 15.7663 18.5239 13.4888C18.8059 12.5354 19.0968 11.5379 19.3964 10.4963C19.7137 9.45462 20.0222 8.42179 20.3218 7.39779C20.6391 6.35613 20.9388 5.35862 21.2208 4.40524C21.5029 3.45186 21.7496 2.57793 21.9612 1.78344C23.1598 1.69517 24.3761 1.58924 25.61 1.46565C26.8615 1.34207 28.0778 1.17434 29.2588 0.962478C29.2059 1.52744 29.1442 2.23365 29.0737 3.0811C29.0208 3.91089 28.9679 4.82014 28.9151 5.80883C28.8622 6.79752 28.8093 7.83034 28.7564 8.90731C28.7035 9.98427 28.6507 11.0436 28.5978 12.0852C28.5096 14.5217 28.4127 17.1081 28.3069 19.8447C27.7781 19.933 27.2493 20.0036 26.7205 20.0566ZM22.6486 13.4094C22.7191 13.4094 22.8425 13.4094 23.0188 13.4094C23.2127 13.3917 23.4066 13.3829 23.6005 13.3829C23.812 13.3652 24.0059 13.3564 24.1822 13.3564C24.3585 13.3388 24.4818 13.3211 24.5524 13.3034C24.5524 13.1975 24.5612 13.021 24.5788 12.7738C24.614 12.509 24.6405 12.2177 24.6581 11.8999C24.6934 11.5644 24.7286 11.2025 24.7639 10.8141C24.7991 10.4257 24.8344 10.0461 24.8696 9.67531C24.9402 8.77489 25.0283 7.80386 25.1341 6.7622L25.2927 4.4582L24.8961 4.48469L24.2879 6.7622L22.6486 13.4094ZM42.8127 10.4963C42.6893 12.2971 42.3368 13.8684 41.7551 15.2102C41.1734 16.5343 40.4683 17.6466 39.6399 18.547C38.829 19.4474 37.9476 20.1183 36.9958 20.5597C36.0615 21.0011 35.1714 21.2218 34.3253 21.2218C33.6731 21.2218 33.0473 21.0806 32.448 20.7981C31.8663 20.5156 31.3551 20.0919 30.9144 19.5269C30.4914 18.9443 30.1565 18.2204 29.9097 17.3553C29.6629 16.4902 29.5395 15.475 29.5395 14.3098C29.5395 12.0323 29.8656 10.0461 30.5178 8.35117C31.17 6.65627 31.9897 5.24386 32.9768 4.11393C33.9815 2.98399 35.048 2.14538 36.1761 1.59806C37.3219 1.05075 38.3883 0.7771 39.3754 0.7771C40.0805 0.7771 40.6887 0.900684 41.1998 1.14786C41.7287 1.39503 42.1605 1.73048 42.4954 2.1542C42.8304 2.56027 43.0683 3.04579 43.2093 3.61076C43.368 4.15807 43.4473 4.74069 43.4473 5.35862L39.8249 6.04717C39.6663 5.34096 39.4548 4.83779 39.1904 4.53765C38.9259 4.23751 38.6263 4.08744 38.2914 4.08744C37.8507 4.08744 37.3659 4.40524 36.8371 5.04082C36.3083 5.65875 35.8148 6.46207 35.3565 7.45076C34.8982 8.43945 34.5104 9.52524 34.1931 10.7081C33.8758 11.891 33.6995 13.0563 33.6643 14.2039C33.6643 15.2985 33.8229 16.0841 34.1402 16.5608C34.4751 17.0199 34.8982 17.2494 35.4093 17.2494C35.7619 17.2494 36.1232 17.1611 36.4934 16.9845C36.8812 16.808 37.2249 16.5608 37.5246 16.243C37.8243 15.9076 38.071 15.528 38.2649 15.1043C38.4765 14.6629 38.591 14.1862 38.6087 13.6742L35.7795 14.0979L36.2819 11.4761C37.1104 11.3702 37.9212 11.2643 38.7144 11.1583C39.3843 11.0701 40.0893 10.9641 40.8297 10.8405C41.5876 10.717 42.2487 10.6022 42.8127 10.4963ZM52.6229 15.4221C52.3761 16.4284 52.0236 17.2847 51.5653 17.9909C51.1246 18.6971 50.5958 19.2797 49.9788 19.7388C49.3795 20.1978 48.7361 20.5332 48.0486 20.7451C47.3612 20.957 46.6737 21.0629 45.9863 21.0629C45.5808 21.0629 45.1666 20.9923 44.7436 20.851C44.3205 20.7274 43.9415 20.5332 43.6066 20.2684C43.2717 20.0036 42.9897 19.6681 42.7605 19.2621C42.549 18.856 42.4432 18.3793 42.4432 17.832C42.4432 17.7614 42.4432 17.6908 42.4432 17.6201C42.4432 17.5495 42.452 17.4789 42.4697 17.4083C42.5402 16.6844 42.6547 15.8105 42.8134 14.7865C42.972 13.7625 43.1395 12.6943 43.3158 11.5821C43.492 10.4698 43.6859 9.35752 43.8975 8.24524C44.109 7.11531 44.2941 6.09131 44.4527 5.17324C44.629 4.25517 44.7788 3.49599 44.9022 2.89572C45.0256 2.27779 45.1049 1.8982 45.1402 1.75696C45.5103 1.72165 45.951 1.67752 46.4622 1.62455C46.9734 1.57158 47.4493 1.52744 47.89 1.49213C48.4364 1.43917 48.9741 1.3862 49.5029 1.33324C49.0446 3.46951 48.6392 5.40275 48.2866 7.13296C48.128 7.87448 47.9693 8.616 47.8107 9.35752C47.6697 10.099 47.5286 10.7788 47.3876 11.3967C47.2642 12.0146 47.1497 12.5531 47.0439 13.0121C46.9558 13.4535 46.8764 13.8154 46.8059 14.0979C46.753 14.3804 46.6825 14.7423 46.5944 15.1837C46.5239 15.6074 46.4886 15.9959 46.4886 16.349C46.4886 16.6314 46.5592 16.8698 46.7002 17.064C46.8412 17.2405 47.0175 17.3288 47.229 17.3288C47.5286 17.3288 47.7754 17.2141 47.9693 16.9845C48.1632 16.7374 48.3219 16.4461 48.4453 16.1106C48.5863 15.7752 48.6832 15.4397 48.7361 15.1043C48.8066 14.7512 48.8683 14.4775 48.9212 14.2833C49.0269 13.7713 49.1415 13.2063 49.2649 12.5884C49.4059 11.9528 49.5381 11.2996 49.6615 10.6287C49.8025 9.94014 49.9347 9.24276 50.0581 8.53655C50.1992 7.83034 50.3314 7.14179 50.4547 6.47089C50.7544 4.91724 51.0452 3.31062 51.3273 1.65103L55.3463 1.3862C55.3463 1.3862 55.3022 1.61572 55.214 2.07475C55.1259 2.53379 55.0114 3.14289 54.8703 3.90207C54.7293 4.66124 54.5707 5.52634 54.3944 6.49737C54.2358 7.46841 54.0507 8.48358 53.8392 9.54289C53.6276 10.5845 53.4161 11.6174 53.2046 12.6414C53.0107 13.6477 52.8168 14.5746 52.6229 15.4221ZM52.9122 20.6127L56.3759 1.78344L64.7312 1.06841C64.6078 1.45682 64.502 1.85406 64.4139 2.26013C64.3257 2.59558 64.2376 2.94869 64.1495 3.31945C64.079 3.67255 64.0173 3.99034 63.9644 4.27282C63.7881 4.29048 63.5325 4.30813 63.1976 4.32579C62.8803 4.32579 62.5366 4.33461 62.1664 4.35227C61.7962 4.35227 61.4173 4.35227 61.0295 4.35227C60.6593 4.35227 60.3332 4.35227 60.0512 4.35227L59.1257 9.09269C59.6722 9.05738 60.1834 9.03089 60.6593 9.01324C61.0471 8.99558 61.4437 8.98675 61.8491 8.98675C62.2546 8.98675 62.5542 8.97793 62.7481 8.96027C62.6776 9.45462 62.6071 9.94014 62.5366 10.4168C62.4837 10.8935 62.4132 11.379 62.3251 11.8734C62.1488 11.891 61.8579 11.9087 61.4525 11.9263C61.0647 11.9263 60.6681 11.9352 60.2627 11.9528C59.8044 11.9705 59.302 11.9881 58.7556 12.0058L57.8566 16.8786L61.7169 16.2695L61.4525 19.2886L52.9122 20.6127Z" fill="url(#paint0_linear_4_1995)"/>
<defs>
<linearGradient id="paint0_linear_4_1995" x1="9.40742e-05" y1="11.7586" x2="66.922" y2="11.7586" gradientUnits="userSpaceOnUse">
<stop stop-color="#7AFE63"/>
<stop offset="1" stop-color="#018BF3"/>
</linearGradient>
</defs>
</svg>
