<svg width="32" height="22" viewBox="0 0 32 22" fill="none" xmlns="http://www.w3.org/2000/svg">
<path d="M12.2562 13.8701C12.2562 14.5939 12.1064 15.2648 11.8067 15.8828C11.507 16.5007 11.1016 17.0656 10.5904 17.5776C10.0792 18.072 9.47992 18.5134 8.79246 18.9018C8.12263 19.2725 7.40873 19.5903 6.65077 19.8552C5.91043 20.1023 5.14365 20.2965 4.35043 20.4378C3.57484 20.5614 2.82568 20.6232 2.10297 20.6232C1.45077 20.6232 0.842632 20.5702 0.278564 20.4643C1.12467 17.3746 1.7945 14.2673 2.28806 11.1423C2.79924 7.99972 3.28399 4.83944 3.74229 1.66151C4.6589 1.4673 5.61077 1.29958 6.59789 1.15834C7.585 0.999439 8.60738 0.919991 9.665 0.919991C10.1057 0.919991 10.5728 0.972958 11.0664 1.07889C11.5599 1.18482 12.0094 1.37903 12.4148 1.66151C12.8203 1.94399 13.1552 2.31475 13.4196 2.77378C13.7016 3.23282 13.8426 3.81544 13.8426 4.52165C13.8426 5.19254 13.7281 5.8193 13.4989 6.40192C13.2874 6.98454 13.0053 7.5142 12.6528 7.99089C12.3179 8.46758 11.9301 8.88247 11.4894 9.23558C11.0487 9.57103 10.5992 9.82703 10.1409 10.0036C10.3701 10.1272 10.6081 10.3037 10.8548 10.5332C11.1016 10.7628 11.3308 11.0364 11.5423 11.3542C11.7538 11.6543 11.9213 12.0163 12.0447 12.44C12.1857 12.8637 12.2562 13.3404 12.2562 13.8701ZM6.20128 11.1159C6.13077 11.5396 6.06026 11.9192 5.98975 12.2546C5.93687 12.5724 5.88399 12.8814 5.83111 13.1815C5.77822 13.4816 5.71653 13.7994 5.64602 14.1349C5.59314 14.4527 5.53145 14.8323 5.46094 15.2736C5.79585 15.2383 6.17484 15.1765 6.59789 15.0883C7.02094 15 7.42636 14.8676 7.81416 14.691C8.20195 14.4968 8.52806 14.2496 8.79246 13.9495C9.05687 13.6317 9.18907 13.2521 9.18907 12.8108C9.18907 12.493 9.10094 12.2281 8.92467 12.0163C8.76602 11.8044 8.5545 11.6279 8.29009 11.4866C8.04331 11.3454 7.77009 11.2483 7.47043 11.1953C7.17077 11.1247 6.88873 11.0894 6.62433 11.0894C6.53619 11.0894 6.45687 11.0894 6.38636 11.0894C6.33348 11.0894 6.27178 11.0982 6.20128 11.1159ZM7.39111 4.70703C7.35585 4.90123 7.31178 5.13075 7.2589 5.39558C7.22365 5.66041 7.17958 5.94289 7.1267 6.24303C7.07382 6.52551 7.01212 6.80799 6.94162 7.09048C6.88873 7.37296 6.84467 7.62013 6.80941 7.83199C7.19721 7.76137 7.585 7.66427 7.9728 7.54068C8.3606 7.4171 8.70433 7.28468 9.00399 7.14344C9.32128 6.98454 9.56806 6.81682 9.74433 6.64027C9.93822 6.46372 10.0352 6.26951 10.0352 6.05765C10.0352 5.79282 9.95585 5.58096 9.79721 5.42206C9.63856 5.24551 9.42704 5.10427 9.16263 4.99834C8.91585 4.89241 8.65145 4.82178 8.36941 4.78647C8.105 4.73351 7.86704 4.70703 7.65551 4.70703H7.39111ZM16.1095 19.9876C15.9508 19.9876 15.6335 20.0141 15.1576 20.067C14.6993 20.1023 14.2234 20.1553 13.7298 20.2259C13.2363 20.2789 12.7868 20.3319 12.3813 20.3848C11.9935 20.4378 11.782 20.4731 11.7468 20.4908C11.923 19.7316 12.0993 18.893 12.2756 17.9749C12.4695 17.0392 12.6634 16.0681 12.8573 15.0618C13.0512 14.0378 13.2363 13.005 13.4125 11.9633C13.5888 10.9216 13.7563 9.9153 13.9149 8.94427C14.2851 6.6844 14.6552 4.36275 15.0254 1.9793L19.1502 1.31723C18.7447 3.68303 18.3481 6.00468 17.9603 8.2822C17.8017 9.25323 17.6342 10.2596 17.458 11.3012C17.2993 12.3429 17.1319 13.3757 16.9556 14.3997C16.7969 15.4237 16.6471 16.4212 16.5061 17.3923C16.3651 18.3456 16.2329 19.2108 16.1095 19.9876ZM31.3433 10.4273C31.2199 12.2281 30.8673 13.7994 30.2856 15.1412C29.704 16.4654 28.9989 17.5776 28.1704 18.4781C27.3595 19.3785 26.4782 20.0494 25.5263 20.4908C24.5921 20.9321 23.7019 21.1528 22.8558 21.1528C22.2036 21.1528 21.5779 21.0116 20.9785 20.7291C20.3968 20.4466 19.8856 20.0229 19.445 19.4579C19.0219 18.8753 18.687 18.1514 18.4402 17.2863C18.1934 16.4212 18.0701 15.4061 18.0701 14.2408C18.0701 11.9633 18.3962 9.9771 19.0484 8.2822C19.7006 6.5873 20.5202 5.17489 21.5073 4.04496C22.5121 2.91503 23.5785 2.07641 24.7067 1.52909C25.8524 0.981785 26.9189 0.70813 27.906 0.70813C28.6111 0.70813 29.2192 0.831717 29.7304 1.07889C30.2592 1.32606 30.6911 1.66151 31.026 2.08523C31.3609 2.4913 31.5989 2.97682 31.7399 3.54178C31.8985 4.08909 31.9779 4.67172 31.9779 5.28965L28.3555 5.9782C28.1968 5.27199 27.9853 4.76882 27.7209 4.46868C27.4565 4.16854 27.1568 4.01848 26.8219 4.01848C26.3812 4.01848 25.8965 4.33627 25.3677 4.97185C24.8389 5.58979 24.3453 6.3931 23.887 7.38179C23.4287 8.37048 23.0409 9.45627 22.7236 10.6392C22.4063 11.8221 22.2301 12.9873 22.1948 14.1349C22.1948 15.2295 22.3534 16.0152 22.6707 16.4919C23.0056 16.9509 23.4287 17.1804 23.9399 17.1804C24.2924 17.1804 24.6538 17.0921 25.024 16.9156C25.4117 16.739 25.7555 16.4919 26.0551 16.1741C26.3548 15.8386 26.6016 15.459 26.7955 15.0353C27.007 14.5939 27.1216 14.1172 27.1392 13.6052L24.3101 14.029L24.8124 11.4072C25.6409 11.3012 26.4517 11.1953 27.245 11.0894C27.9148 11.0011 28.6199 10.8952 29.3602 10.7716C30.1182 10.648 30.7792 10.5332 31.3433 10.4273Z" fill="url(#paint0_linear_4_1994)"/>
<defs>
<linearGradient id="paint0_linear_4_1994" x1="0.305005" y1="11.6896" x2="33.1789" y2="11.6896" gradientUnits="userSpaceOnUse">
<stop stop-color="#7AFE63"/>
<stop offset="1" stop-color="#018BF3"/>
</linearGradient>
</defs>
</svg>
