<svg width="20" height="23" viewBox="0 0 20 23" fill="none" xmlns="http://www.w3.org/2000/svg">
<path d="M3.86669 9.33333H5.98669V16C5.98669 16.7333 6.58669 17.3333 7.32002 17.3333H12.6534C13.3867 17.3333 13.9867 16.7333 13.9867 16V9.33333H16.1067C17.2934 9.33333 17.8934 7.89333 17.0534 7.05333L10.9334 0.933335C10.4134 0.413335 9.57335 0.413335 9.05335 0.933335L2.93335 7.05333C2.09335 7.89333 2.68002 9.33333 3.86669 9.33333ZM0.666687 21.3333C0.666687 22.0667 1.26669 22.6667 2.00002 22.6667H18C18.7334 22.6667 19.3334 22.0667 19.3334 21.3333C19.3334 20.6 18.7334 20 18 20H2.00002C1.26669 20 0.666687 20.6 0.666687 21.3333Z" fill="white"/>
</svg>
